<svg width="512" height="512" viewBox="0 0 512 512" fill="none" xmlns="http://www.w3.org/2000/svg">
<rect width="512" height="512" rx="88" fill="#DAFE7A"/>
<path d="M231.055 87.825L232.555 87.8348C295.96 88.6394 347.293 140.385 347.293 203.887V205.23C353.373 207.722 355.145 208.517 356.564 209.434C356.671 209.504 356.766 209.583 356.855 209.666C390.244 230.139 410.843 269.122 410.843 311.495V317.096C410.843 380.876 364.486 433.158 307.039 433.158H138.011C125.2 433.158 114.747 422.768 114.783 409.926V296.787C114.783 283.924 125.225 273.495 138.043 273.495H231.022C255.051 273.495 276.781 261.425 289.457 241.854H138.939C138.609 241.888 138.276 241.887 138.076 241.887C125.264 241.887 114.817 231.497 114.817 218.66V111.117C114.817 98.2537 125.258 87.825 138.076 87.825H231.055ZM336.844 252.01C318.499 292.062 277.995 319.948 231.088 319.948H161.401V386.606H307.105C338.34 386.606 364.357 355.77 364.357 317.031V311.397C364.357 287.218 353.754 264.596 336.844 252.01ZM336.483 250.552L335.916 251.333C335.921 251.336 335.925 251.339 335.93 251.342L336.49 250.555L337.091 249.715L336.483 250.552ZM161.401 195.303H300.25C295.994 161.008 266.6 134.345 231.088 134.345H161.401V195.303Z" fill="#797DFB" stroke="#797DFB" stroke-width="4" stroke-linejoin="round"/>
</svg>
